<mxfile host="app.diagrams.net" modified="2023-07-29T03:17:07.124Z" agent="Mozilla/5.0 (Windows NT 10.0; Win64; x64) AppleWebKit/537.36 (KHTML, like Gecko) Chrome/115.0.0.0 Safari/537.36" version="21.6.6" etag="ppv74CjWArHYCLISI2j5" type="github">
  <diagram name="Page-1" id="qmzPLsJE9rRN4DTMFS_M">
    <mxGraphModel>
      <root>
        <mxCell id="0" />
        <mxCell id="1" parent="0" />
      </root>
    </mxGraphModel>
  </diagram>
</mxfile>
